<?xml version="1.0" encoding="UTF-8"?>
<svg id="Layer_1" data-name="Layer 1" xmlns="http://www.w3.org/2000/svg" viewBox="0 0 2696.11 416.81">
  <defs>
    <style>
      .cls-1 {
        fill: #f04123;
      }

      .cls-1, .cls-2, .cls-3 {
        stroke-width: 0px;
      }

      .cls-2 {
        fill: #000e2d;
      }

      .cls-3 {
        fill: #fff;
      }
    </style>
  </defs>
  <rect class="cls-2" x="-9.22" width="2714.55" height="416.81"/>
  <path class="cls-1" d="M26.72,372.89c10.53-10.93,20.32-21.27,30.29-31.43,19.11-19.48,38.66-38.48,60.36-55.14,22.34-17.14,46.75-30.04,74.84-34.42,14.67-2.28,29.59-3.91,44.42-4.1,43.97-.55,87.96-.16,131.94-.31,18.98-.07,37.82-1.57,56.05-7.45,14.01-4.52,26.16-11.85,35.62-23.28.81-.97,1.41-2.11,2.34-3.53-1.07-.12-1.51-.31-1.75-.17-11.3,6.88-24.12,8.04-36.75,9.06-41.75,3.39-83.61,1.35-125.42,1.81-.24,0-.49-.1-1.58-1,.85-.46,1.83-.76,2.53-1.39,8.43-7.51,10.09-17.94,3.28-27.06-3.94-5.27-8.97-9.95-14.23-13.97-57.61-43.97-115.36-87.76-173.07-131.61-1.07-.82-2.09-1.7-3.94-3.2,2.19-.12,3.38-.24,4.56-.24,59.02,0,118.04.03,177.05-.03,17.74-.02,33.22,5.28,46.88,17.01,34.39,29.53,69.27,58.5,103.68,88,7.24,6.2,14.11,13.15,19.8,20.76,13.82,18.48,14.67,38.29,3.56,58.5-6.58,11.96-15.49,22.19-25.44,31.35-32.31,29.77-64.73,59.43-97.49,88.71-18.3,16.36-40.51,23.15-64.84,23.18-83.16.1-166.31.09-249.47.12-.74,0-1.48-.08-3.26-.18Z"/>
  <g>
    <path class="cls-3" d="M2433.34,45.25c3.38,0,6.41,0,9.44,0,26.92.01,53.84-.18,80.75.09,21.7.22,42.74,4.13,62.24,14.08,33.44,17.07,50.96,44.44,51.01,82,.04,37.36-17.86,64.32-50.59,81.58-21.26,11.21-44.34,14.88-68.14,14.88-27.04,0-54.09,0-81.13,0-1.11,0-2.22-.13-3.57-.21V45.25ZM2500.51,204.11c7.08,0,13.77.28,20.42-.05,24.7-1.23,39.51-12.71,45.2-35.53,4.46-17.9,4.36-36.01,0-53.94-3.08-12.71-9.53-23.3-21.51-29.71-13.96-7.47-29.06-5.63-44.12-5.72v124.96Z"/>
    <path class="cls-3" d="M2290.14,177.19v60.44h-67.03V45.43c1.12-.06,2.09-.17,3.07-.17,30.96,0,61.92-.09,92.89.06,14.99.07,29.74,2.14,43.77,7.72,23.51,9.35,37.51,26.13,38.72,51.87,1.21,25.71-10.25,44.59-32.8,56.84-2.65,1.44-5.44,2.61-8.61,4.11,15.7,23.83,31.31,47.54,47.29,71.81-1.95.09-3.26.21-4.58.21-21.99.01-43.98-.06-65.97.09-3.16.02-4.65-1.12-6.02-3.8-8.93-17.52-18.15-34.89-26.98-52.46-1.81-3.6-3.92-5.12-7.82-4.57-1.72.24-3.5.04-5.93.04ZM2290.42,79.11v67.75c3.87-.32,7.49-.59,11.09-.91,23.63-2.11,36.27-16.21,35.06-39.1-.72-13.69-6.8-22.36-18.24-25.83-9.1-2.76-18.42-1.83-27.91-1.91Z"/>
    <path class="cls-3" d="M849.98,240.74c-19.06-.21-45.05-7.12-67.27-24.88-53.06-42.41-46.02-124.41,13.41-157.72,23.08-12.94,47.99-17.31,74.18-15.43,19.31,1.39,37.65,6.31,54.18,16.49,33.01,20.32,49.25,50.03,46.92,88.75-2.22,36.81-21.45,62.98-53.85,79.73-18.3,9.46-38.04,13.19-67.57,13.05ZM904.04,146.32c0-2.77.19-5.56-.03-8.31-1.12-14.22-4-27.95-12.37-39.92-9.74-13.92-27.04-20.64-43.63-16.92-15.8,3.54-24.69,14.35-29.63,28.94-4.72,13.92-4.67,28.24-2.66,42.61,1.67,11.99,5.3,23.22,12.39,33.28,15.09,21.41,55.87,26.25,70.46-7.94,4.33-10.14,5.88-20.79,5.47-31.74Z"/>
    <path class="cls-3" d="M1754.13,101.92c-5.95-3.41-11.24-6.58-16.64-9.51-11.47-6.23-23.33-11.31-36.39-13.42-34.89-5.64-62.23,15.98-64.45,51.2-.74,11.67.04,23.17,3.72,34.38,8.12,24.74,29.15,41.36,55.18,43.53,3.14.26,6.28.48,10.15.78-1.69-24.49-3.36-48.65-5.04-73.06h64.53c.09,1.27.23,2.37.23,3.46.01,28.14-.03,56.27.07,84.41,0,2.57-.68,3.76-3.2,4.55-28.18,8.85-56.91,14.03-86.53,12.25-29.62-1.77-56.94-10.15-79.13-30.88-20.55-19.21-29.31-43.26-27.82-71.18,2.41-45.11,33.04-82.73,85.01-92.99,32.51-6.42,64.59-3.34,96.13,6.55,3.48,1.09,4.29,2.72,4.25,6.13-.19,14.38-.08,28.76-.08,43.8Z"/>
    <path class="cls-3" d="M1795.98,45.47h67.28c0,1.69,0,3.17,0,4.65,0,35.96-.04,71.91.05,107.87.01,4.77.18,9.64,1.13,14.29,3.7,18.02,17.88,27.95,37.14,26.4,21.23-1.71,32.81-13.31,33.97-34.67.54-9.94.3-19.92.31-29.89.03-27.88.01-55.76.01-83.64,0-1.6,0-3.2,0-5.01h42.1c.12.84.31,1.57.31,2.3-.04,39.87-.06,79.73-.2,119.6-.03,9.64-1.75,19.07-5.11,28.14-7.32,19.74-21.59,32.53-41.29,38.71-30.34,9.51-61.05,9.56-91.27-.49-25.01-8.32-38.78-26.7-42.87-52.4-1.04-6.57-1.49-13.3-1.51-19.96-.14-37.34-.07-74.69-.07-112.03,0-1.23,0-2.45,0-3.86Z"/>
    <path class="cls-3" d="M2203.65,237.9c-1.82,0-3.05,0-4.28,0-22.36,0-44.73-.07-67.09.08-3.04.02-4.41-.88-5.38-3.77-3.23-9.54-6.84-18.95-10.17-28.46-.74-2.13-1.82-2.87-4.09-2.85-21.86.21-43.71.35-65.57.4-2.4,0-3.53.7-4.31,3.05-3.18,9.56-6.62,19.03-9.9,28.56-.62,1.79-1.22,3.06-3.56,3.05-15.54-.1-31.08-.06-46.62-.08-.49,0-.97-.18-1.94-.36.73-1.75,1.37-3.34,2.06-4.91,24.01-54.81,48-109.63,72.09-164.41,1.21-2.75,1.43-5.11.29-7.89-1.95-4.75-3.59-9.62-5.51-14.84,1.66-.08,2.86-.18,4.07-.19,21.1-.01,42.2.05,63.3-.07,2.8-.02,4.14.76,5.28,3.41,26.55,61.81,53.2,123.58,79.83,185.35.48,1.11.87,2.26,1.51,3.94ZM2104.07,169.9c-8.21-21.92-16.29-43.48-24.71-65.95-8.27,22.59-16.15,44.14-24.13,65.95h48.84Z"/>
    <path class="cls-3" d="M965.57,237.53c2.98-6.82,5.83-13.38,8.7-19.93,21.93-50.09,43.89-100.16,65.71-150.29.79-1.81.75-4.38.17-6.32-1.55-5.16-3.6-10.16-5.64-15.73,1.65,0,2.85,0,4.06,0,21.1,0,42.2.06,63.31-.07,2.79-.02,4.2.71,5.34,3.36,26.5,61.7,53.09,123.36,79.66,185.03.54,1.25.99,2.53,1.7,4.32-1.81,0-3.16,0-4.52,0-22.24,0-44.48-.07-66.72.08-3.2.02-4.6-.98-5.62-4-3.12-9.31-6.66-18.49-9.9-27.76-.8-2.3-1.8-3.38-4.52-3.35-21.73.26-43.46.39-65.19.41-2.61,0-3.71.82-4.52,3.27-3.16,9.57-6.61,19.04-9.86,28.57-.65,1.91-1.5,2.84-3.72,2.82-15.29-.09-30.58-.05-45.87-.06-.72,0-1.43-.19-2.57-.35ZM1088.96,169.86c-8.2-21.9-16.26-43.41-24.68-65.91-8.26,22.57-16.14,44.1-24.12,65.91h48.81Z"/>
    <path class="cls-3" d="M1199.06,176.87c9.77,4.63,19.09,9.38,28.67,13.52,14.5,6.25,29.31,11.78,45,14.18,5.25.81,10.93.8,16.1-.29,8.83-1.86,11.94-12.27,5.81-18.97-2.91-3.18-6.7-5.86-10.57-7.8-12.4-6.22-25.17-11.7-37.51-18.02-8.95-4.59-17.93-9.4-26.05-15.27-29.85-21.62-27.29-62.33.01-83.34,12.65-9.73,27.14-14.79,42.74-17.12,26.13-3.89,51.59.31,76.87,6.46,3.31.8,6.64,1.6,9.84,2.71.99.34,2.28,1.74,2.29,2.66.15,14.12.1,28.23.1,43-1.78-.62-3.14-1.05-4.47-1.56-18.26-6.99-36.41-14.33-55.71-18.06-7.84-1.52-15.74-2.46-23.67-.55-4.56,1.1-8.33,3.29-9.38,8.24-1.04,4.9,1.17,8.91,5.09,11.39,5.83,3.7,11.88,7.19,18.19,9.95,12.82,5.62,25.91,10.6,38.82,16.02,10.65,4.47,20.56,10.12,29.11,18.07,20.81,19.35,17.55,54.41.75,72.89-11.36,12.49-25.92,19.03-42.02,22.47-29.86,6.38-59.28,3.21-88.38-4.81-4.62-1.27-9.18-2.77-13.68-4.41-1.05-.38-2.39-1.66-2.51-2.66-1.91-16.14-3.64-32.3-5.44-48.72Z"/>
    <path class="cls-3" d="M726.51,181.37c2.75,7.02,5.45,13.66,7.88,20.4.33.91-.42,2.62-1.21,3.44-17.85,18.51-39.5,29.91-64.95,33.77-23.21,3.52-46.18,2.84-68.07-6.69-35-15.23-54.65-42.05-58.56-79.94-4.94-47.86,23.61-89.25,73.1-103.94,27.65-8.21,55.6-7.69,83.58-1.93,7.64,1.57,15.14,3.89,22.63,6.08,1.12.33,2.69,1.85,2.7,2.84.17,15.25.12,30.49.12,46.46-1.64-.95-2.79-1.59-3.91-2.27-14.04-8.58-28.39-16.47-44.74-19.81-10.54-2.15-21.13-2.42-31.51.63-20.81,6.12-31.63,20.89-34.19,41.73-1.99,16.19.11,32.05,8.17,46.56,10.45,18.81,26.93,28.55,48.15,30.27,19.82,1.61,37.96-3.87,54.86-13.95,1.84-1.1,3.65-2.23,5.96-3.65Z"/>
    <path class="cls-3" d="M1501.49,82.52v155.1h-67.21V82.5c-19.61,1.8-38.67,3.54-57.97,5.31v-42.26h182.79v42.24c-19.06-1.74-38.08-3.48-57.61-5.26Z"/>
    <path class="cls-3" d="M1121.97,373.39h-15.1v-44.96c-.26-.04-.52-.09-.78-.13-.39.97-.84,1.93-1.16,2.92-4.1,12.84-8.25,25.66-12.21,38.53-.86,2.81-1.99,4.05-5.2,3.93-7.66-.26-7.66-.06-10.05-7.53-3.68-11.51-7.36-23.03-11.05-34.54-.33-1.04-.69-2.06-1.86-3.02v44.76h-15.35v-69.3c7.06,0,13.97-.1,20.87.12.84.03,2.01,1.63,2.36,2.72,4.1,12.83,8.07,25.71,12.08,38.57.3.96.62,1.91,1.24,3.78.76-2.18,1.31-3.58,1.75-5.02,3.85-12.39,7.74-24.76,11.46-37.18.7-2.35,1.78-3.14,4.22-3.07,6.17.17,12.35.06,18.79.06v69.35Z"/>
    <path class="cls-3" d="M1327.81,345.03v-40.65h15.14v69.14c-4.26,0-8.61.15-12.95-.12-.9-.06-1.85-1.56-2.54-2.56-8.65-12.58-17.25-25.19-25.87-37.79-.74-1.09-1.5-2.16-3.01-2.94v43.2h-15.17v-69.24c4.92,0,9.8-.14,14.66.12,1.03.06,2.23,1.42,2.94,2.47,7.93,11.69,15.78,23.44,23.65,35.17.76,1.14,1.54,2.26,2.32,3.39.27-.06.54-.12.81-.18Z"/>
    <path class="cls-3" d="M1200.65,338.89c-.02,16.79-8.79,29.89-22.87,34.19-22.4,6.84-42.71-8.16-43.8-32.35-.76-16.86,7.68-30.96,21.74-35.8,21.55-7.43,45.13,5.88,44.94,33.96ZM1149.42,338.59c1.39,4.77,2.02,9.52,4.1,13.52,5.82,11.2,21.22,11.54,27.46.59,5.24-9.19,5.21-18.96-.14-28.1-6.18-10.55-21.23-10.34-27.08.4-2.21,4.06-2.91,8.94-4.34,13.59Z"/>
    <path class="cls-3" d="M984.16,304.04c-8.78,10.25-16.87,19.69-25.03,29.21,8.83,13.31,17.52,26.41,26.72,40.28-6.49,0-12.23.11-17.96-.12-.89-.04-1.87-1.51-2.55-2.5-5.61-8.22-11.15-16.49-16.85-24.95-4.57,4.54-9.29,8.55-8.1,15.97.58,3.65.1,7.48.1,11.43h-15.74v-69h15.53v29.4c1.32-1.25,2.04-1.8,2.61-2.49,6.92-8.35,13.76-16.77,20.79-25.03.97-1.14,2.85-2.04,4.36-2.12,5.02-.26,10.06-.1,16.12-.1Z"/>
    <path class="cls-3" d="M722.13,304.25h15.88c.14.78.34,1.39.34,2,0,13.37.08,26.75-.09,40.12-.27,21.45-15.24,29.78-33.51,28-14.64-1.42-23.43-9.53-24.5-24.15-1.04-14.18-.44-28.49-.54-42.74,0-.98.1-1.96.16-3.19h15.94c0,1.57,0,2.92,0,4.27,0,11.36-.02,22.71.02,34.07,0,2.14.1,4.29.36,6.42.87,7.07,5.15,11.09,11.91,11.35,7.62.29,12.08-3.01,13.56-10.28.42-2.08.45-4.26.46-6.39.04-11.73.02-23.47.02-35.2,0-1.35,0-2.71,0-4.26Z"/>
    <path class="cls-3" d="M604.39,373.59c4.97-13.41,9.7-26.13,14.4-38.86,3.4-9.21,6.84-18.41,10.12-27.67.79-2.23,1.87-3.19,4.34-3.08,4.28.21,8.59-.06,12.88.14,1.09.05,2.76.91,3.1,1.79,8.35,22.27,16.55,44.59,25.04,67.61-5.42,0-10.39.1-15.35-.11-.69-.03-1.55-1.46-1.93-2.4-1.22-3.04-2.06-6.23-3.44-9.19-.48-1.03-2.06-2.17-3.17-2.2-7.45-.19-14.9-.21-22.35.01-1.18.04-2.83,1.33-3.38,2.46-1.42,2.93-2.2,6.17-3.54,9.14-.45.99-1.8,2.17-2.79,2.23-4.39.24-8.81.1-13.93.1ZM639.03,321.85c-3.08,8.67-5.77,16.25-8.58,24.15h17.33c-2.88-7.95-5.64-15.57-8.75-24.15Z"/>
    <path class="cls-3" d="M1203.1,373.58c4.13-11.15,7.97-21.51,11.8-31.87,4.28-11.56,8.64-23.1,12.76-34.72.84-2.36,1.99-3.08,4.35-2.99,4.29.15,8.59-.08,12.87.13,1.09.05,2.76.91,3.09,1.8,8.32,22.26,16.5,44.57,24.98,67.61-5.4,0-10.36.08-15.31-.1-.62-.02-1.43-1.25-1.76-2.08-1.27-3.15-2.22-6.44-3.66-9.5-.49-1.04-2.05-2.2-3.15-2.23-7.57-.19-15.15-.18-22.71,0-1,.02-2.45,1.12-2.88,2.08-1.38,3.09-2.28,6.4-3.6,9.52-.4.95-1.57,2.19-2.43,2.23-4.5.22-9.02.1-14.33.1ZM1238.19,323.17c-.29,0-.59,0-.88,0-2.69,7.46-5.37,14.93-8.19,22.76h17.34c-2.86-7.86-5.56-15.31-8.27-22.76Z"/>
    <path class="cls-3" d="M913.61,373.58c-4.72,0-9.37.09-14.01-.09-.82-.03-1.94-1.03-2.33-1.86-1.01-2.16-1.92-4.41-2.44-6.73-.94-4.19-3.02-5.87-7.59-5.5-6.27.5-12.61.21-18.92.08-2.1-.05-3.2.55-3.83,2.62-.94,3.13-2.07,6.21-3.37,9.21-.41.94-1.59,2.13-2.47,2.17-4.49.22-9,.1-14,.1.5-1.68.78-2.86,1.2-3.99,7.63-20.65,15.32-41.29,22.85-61.98.96-2.63,2.09-3.85,5.06-3.65,4.15.29,8.33-.05,12.49.16,1.08.06,2.71.97,3.05,1.87,8.25,22.16,16.36,44.38,24.48,66.59.04.1-.03.23-.16.99ZM870.39,345.99h17.38c-2.87-7.89-5.59-15.39-8.32-22.89-.3.05-.6.11-.9.16-2.66,7.4-5.31,14.8-8.16,22.73Z"/>
    <path class="cls-3" d="M1353.47,373.38c2.76-7.49,5.32-14.43,7.89-21.37,5.54-14.99,11.14-29.95,16.57-44.98.82-2.28,1.89-3.14,4.31-3.04,4.28.19,8.59-.1,12.87.15,1.15.07,2.88,1.11,3.25,2.12,8.2,21.92,16.25,43.89,24.31,65.86.08.22,0,.49,0,1.42-4.92,0-9.88.08-14.83-.1-.61-.02-1.39-1.29-1.73-2.12-1.13-2.8-2.3-5.61-3.06-8.52-.72-2.75-2.25-3.39-4.91-3.33-6.81.17-13.63.15-20.45,0-2.35-.05-3.62.53-4.37,2.94-1.16,3.7-1.81,8.72-4.46,10.46-2.86,1.87-7.78.63-11.81.7-.98.02-1.97-.11-3.6-.2ZM1388.03,321.92c-3.08,8.58-5.8,16.15-8.6,23.95h17.28c-2.88-7.94-5.59-15.41-8.68-23.95Z"/>
    <path class="cls-3" d="M569.88,317.74h-21.13v-13.36h58.42v13.3h-20.83v55.88c-5.18,0-9.95.13-14.69-.15-.65-.04-1.68-2.16-1.69-3.32-.12-14.51-.08-29.02-.08-43.53,0-2.75,0-5.51,0-8.81Z"/>
    <path class="cls-3" d="M786.01,373.39h-16.06v-55.37h-21.19v-13.7h58.06v13.34h-20.81v55.73Z"/>
    <path class="cls-3" d="M1010.66,373.42h-15.68v-69.17h15.68v69.17Z"/>
    <path class="cls-3" d="M818.55,304.21h15.51v69.07h-15.51v-69.07Z"/>
  </g>
</svg>